<svg id="Layer_1" data-name="Layer 1" xmlns="http://www.w3.org/2000/svg" viewBox="0 0 120.08 120.31"><title>facebook</title><path d="M.05,60.12C-.15,27.21,26.63,0,59.5,0c33.22,0,59.92,25.06,60.62,59.63.67,33.12-26.88,60.46-59.66,60.68C27.1,120.56.28,93.79.05,60.12ZM3.36,60c-.26,30.79,24.78,56.71,55.08,57,32.06.32,58.39-24.54,58.45-55.93.06-33.41-26-57.45-56.1-57.73C28.77,3,3.63,27.84,3.36,60Z" transform="translate(-0.05 -0.03)"/><path d="M51,82.64c0-4.33-.16-8.67,0-13,.19-3.76-1-5.52-5.07-5.4-2.46.07-6,1.35-7.17-1.77a17.83,17.83,0,0,1,0-11.76c.86-2.59,3.77-1.85,5.75-1.66,5,.49,7-1.28,6.55-6.45a28.17,28.17,0,0,1,.52-9.94c2-7.54,6.86-12,14.55-13.23a41.16,41.16,0,0,1,6.47-.36c9,0,8.78,0,8.89,8.76.06,4.56-1.85,5.66-6,5.61-7.83-.07-11.76,6.21-8.83,13.57.81,2.05,2.52,1.84,4.16,1.93,10.68.62,10.49.59,8.82,10.85-.61,3.72-2.44,4.51-5.71,4.57-7.44.13-7.46.24-7.48,7.83,0,7.83-.16,15.66,0,23.49.1,4-1.26,6-5.43,5.66a42,42,0,0,0-4.49,0c-3.91.1-5.84-1.51-5.62-5.68s0-8.66,0-13Z" transform="translate(-0.05 -0.03)"/></svg>