<svg id="Layer_1" data-name="Layer 1" xmlns="http://www.w3.org/2000/svg" viewBox="0 0 120.17 120.28"><title>Instagram</title><path d="M59.51,268.36A59.57,59.57,0,0,1,.07,208.66v-.3a60.22,60.22,0,0,1,60.16-60.28h.23c32.53.09,59.89,27.87,59.78,60.7S92.82,268.42,59.51,268.36ZM3.28,208.16c.06,32,24.87,56.85,56.6,57,28.22.11,57.11-21.32,56.82-57.37-.27-33-26-56.17-57-56.33S3.28,176.91,3.28,208.16Z" transform="translate(-0.07 -148.08)"/><path d="M95.39,208.4c0,5.16.15,10.33,0,15.48-.37,11.17-7.68,19.23-18.7,20.52a140.91,140.91,0,0,1-32.84.11c-11.87-1.4-18.85-9-19.38-21-.45-10.13-.49-20.32,0-30.44.61-13,9.52-21,22.49-21H73.91A21,21,0,0,1,95.45,193c.15,5.15,0,10.32,0,15.47Zm-6.34.24h0c0-5.17.19-10.34,0-15.5-.4-8.82-6.27-14.58-15.08-14.75q-13.74-.27-27.49,0c-9.35.14-15.91,5.86-15.66,15.21.29,10.47-.87,21,.43,31.4,1,8,5.65,12.87,13.71,13.08q15,.39,30,0c8.18-.19,13.7-5.77,14.07-13.94.25-5.16,0-10.34,0-15.5Z" transform="translate(-0.07 -148.08)"/><path d="M60.5,188.94c11.69.16,19.08,7.66,19,19.22-.13,11.28-8.48,19.65-19.61,19.65-10.6,0-19.66-9-19.57-19.37C40.38,197.29,49.17,188.79,60.5,188.94Zm-.27,7.4c-7.31,0-11.86,4.43-11.93,11.71s4.46,11.92,11.64,12c6.88.08,12.16-5.34,12.1-12.42-.05-6.92-4.59-11.26-11.76-11.29Z" transform="translate(-0.07 -148.08)"/></svg>