<svg id="Layer_1" data-name="Layer 1" xmlns="http://www.w3.org/2000/svg" viewBox="0 0 410 320.26"><defs><style>.cls-1{fill:#6c3a0b;}.cls-2{fill:#ffbc0f;}</style></defs><title>Logo donut</title><path class="cls-1" d="M102,58H278a88.24,88.24,0,0,1,88,88v35.2a88.24,88.24,0,0,1-88,88H102a88.24,88.24,0,0,1-88-88V146A88.24,88.24,0,0,1,102,58Z" transform="translate(-14 -58)"/><path class="cls-1" d="M115.18,335.15c0,7.91-1.76,13.19-6.16,17.59a21.23,21.23,0,0,1-15,6.16H89.67c-1.76,0-2.64,0-3.52-.88V312.27h7q6.6,0,10.56,2.64a20.78,20.78,0,0,1,7,7.92C115.18,325.47,115.18,329.87,115.18,335.15Zm23.76-.88c0-9.68-1.76-17.6-6.16-23.76-3.52-6.16-8.8-10.56-15.84-14.08S102,292,93.18,292a54.08,54.08,0,0,0-11.43.88,31.06,31.06,0,0,0-12.32,2.64c-1.76.88-2.64,1.76-4.4,2.64a6.72,6.72,0,0,0-1.76,4.4v61.59c0,4.4,2.64,7.92,7,9.68a28.11,28.11,0,0,0,12.32,2.64c4.4,0,7.92.88,11.43.88a58.86,58.86,0,0,0,22.88-4.4c7-3.52,11.44-7.92,15.84-14.08C137.18,351.86,138.94,343.94,138.94,334.27Zm78.3,8.79a40.91,40.91,0,0,1-4.4,18.48c-2.64,5.28-7,8.8-12.32,12.32a41,41,0,0,1-37,0,31.08,31.08,0,0,1-12.32-11.44,41,41,0,0,1,0-36.95c2.64-5.28,7-8.8,12.32-11.44a41,41,0,0,1,37,0c5.28,2.64,8.8,7,12.32,12.32C215.48,329.87,217.24,336,217.24,343.06Zm-34.31-16.71c-3.52,0-6.16,1.76-8.8,4.4-1.76,2.64-2.64,7-2.64,12.31s.88,9.68,2.64,12.32a10.83,10.83,0,0,0,8.8,4.4c3.52,0,6.16-1.76,8.8-4.4,1.75-2.64,2.63-7,2.63-12.32s-.88-9.67-3.51-12.31C189.09,327.23,186.45,326.35,182.93,326.35Zm108.22,7V345.7h-22V334.27a8,8,0,0,0-2.64-6.16,12.72,12.72,0,0,0-6.16-1.76,11.16,11.16,0,0,0-5.28.88c-1.76.88-2.64.88-4.4,1.76V345.7H227.8V325.47a12.72,12.72,0,0,1,1.76-6.16c.88-1.76,2.64-2.64,4.4-4.4,2.64-1.76,7-3.52,11.43-5.28a77.5,77.5,0,0,1,15-1.76c9.68,0,17.6,2.64,22.88,7S291.15,325.47,291.15,333.39Zm-63.35,6.16h22.87v34.31c-.88,0-2.64.88-4.4.88h-6.15c-4.4,0-7.92-.88-9.68-2.64s-2.64-4.4-2.64-7.92Zm41.35,0H292v34.31c-.88,0-2.64.88-4.4.88h-6.16c-4.4,0-7.92-.88-9.68-2.64s-2.64-4.4-2.64-7.92Zm36.07,9.67v-8.8H328.1v8.8q0,5.28,2.64,7.92t7.92,2.64a11.16,11.16,0,0,0,5.28-.88,8.86,8.86,0,0,0,2.64-.88v-17.6h22.87v20.24a12.72,12.72,0,0,1-1.76,6.16c-.88,1.76-2.64,2.64-4.4,4.4a44.21,44.21,0,0,1-11.44,4.4,68.2,68.2,0,0,1-14.07,1.76c-6.16,0-12.32-.88-16.72-2.64a23.61,23.61,0,0,1-11.44-8.8C306.1,360.66,305.22,355.38,305.22,349.22Zm63.35-2.64H345.7V311.39c.88,0,2.63-.88,4.39-.88h6.16c4.4,0,7.92.88,9.68,2.64s2.64,4.4,2.64,7.92Zm-41.35,0H304.34V311.39c.88,0,2.64-.88,4.4-.88h6.16c4.4,0,7.92.88,9.68,2.64s2.64,4.4,2.64,7.92Zm54.55-7h22v13.19c0,2.64.88,3.52,1.76,5.28a12.72,12.72,0,0,0,6.16,1.76h4.4c1.76,0,2.64-.88,3.52-.88a4.57,4.57,0,0,1,1.76,3.52c.88.88.88,2.64.88,4.4,0,3.52-.88,6.16-3.52,7.92a23.75,23.75,0,0,1-13.2,3.52c-7.91,0-14.07-1.76-17.59-5.28-4.4-3.52-6.16-8.8-6.16-17.6Zm15-10.56v-17.6h24.63c.88.88.88,1.76,1.76,3.52a11.16,11.16,0,0,1,.88,5.28,13.63,13.63,0,0,1-1.76,7A12.51,12.51,0,0,1,417,329Zm7.91,14.07h-22V295.55c.88,0,2.64-.88,4.4-.88s3.52-.88,6.16-.88c4.4,0,7,.88,9.67,2.64q2.64,2.64,2.64,7.92v38.71Z" transform="translate(-14 -58)"/><path class="cls-2" d="M79.11,160.06H102v14.08a29.31,29.31,0,0,1-2.64,13.19,21.24,21.24,0,0,1-8.79,8.8,34,34,0,0,1-15,3.52A28.11,28.11,0,0,1,63.27,197c-3.52-1.76-5.28-4.4-5.28-8.8,0-1.76,0-3.51.88-4.39s.88-2.64,1.76-3.52c1.76,0,2.64.88,4.4.88h3.52c3.52,0,6.16-.88,7-2.64q2.64-2.64,2.64-7.92V160.06ZM102,170.62H79.11V118.71a9.57,9.57,0,0,0,4.4-.88c1.76,0,4.4-.88,6.16-.88,4.39,0,7.91.88,9.67,2.64s2.64,4.4,2.64,8.8Zm26.4,6.16-.88-15,30.79-5.28q0-2.64-2.64-5.28a10,10,0,0,0-7-2.64,11.26,11.26,0,0,0-8.79,3.52c-2.64,2.64-3.52,5.28-3.52,9.68l.88,11.44c.88,4.4,2.64,7,6.15,8.8a23.42,23.42,0,0,0,10.56,2.63,44.15,44.15,0,0,0,10.56-1.75c3.52-.88,6.16-1.76,7.92-3.52a6.87,6.87,0,0,1,3.52,3.52,12.42,12.42,0,0,1,1.76,5.27,8,8,0,0,1-3.52,7c-1.76,1.76-5.28,3.52-8.8,4.4s-7.92.88-13.2.88c-7,0-13.19-.88-18.47-3.52a32.89,32.89,0,0,1-13.2-11.44c-3.52-5.27-4.4-11.43-4.4-19.35a37.92,37.92,0,0,1,2.64-15,24,24,0,0,1,7.92-10.56,65.64,65.64,0,0,1,10.56-6.16,51.77,51.77,0,0,1,12.31-1.76c6.16,0,11.44.88,16.72,3.52,4.4,2.64,7.92,5.28,10.56,9.68s3.52,8.8,3.52,14.08a9.08,9.08,0,0,1-9.68,9.68Zm62.47-13.2h22.87v34.31c-.88,0-2.64.88-4.4.88h-6.16c-4.4,0-7-.88-9.67-2.64q-2.64-2.64-2.64-7.92Zm22,12.32H190V112.55c.88,0,2.64-.88,4.39-.88h6.16c4.4,0,7.92.88,9.68,2.64s2.64,4.4,2.64,7.92Zm15-12.32h22.87v34.31c-.88,0-2.64.88-4.4.88h-6.15c-4.4,0-7-.88-9.68-2.64q-2.64-2.64-2.64-7.92Zm22.87,12.32H227.8V112.55c.88,0,2.64-.88,4.4-.88h6.16c4.4,0,7.91.88,9.67,2.64s2.64,4.4,2.64,7.92Zm24.64,6.16c-1.76-2.64-2.64-6.16-4.4-10.56s-2.64-8.8-4.4-14.08-3.52-12.32-5.28-20.24a13.53,13.53,0,0,1,5.28-3.51,16.58,16.58,0,0,1,7-1.76c3.52,0,5.28.88,7.92,1.76,1.76.88,3.52,3.51,4.4,7l5.28,18.48c1.76,6.16,3.52,12.32,5.27,17.6h.88c1.76-4.4,2.64-8.8,4.4-13.2s2.64-9.68,3.52-15,2.64-9.68,2.64-15c1.76-.88,2.64-1.76,4.4-1.76a11.16,11.16,0,0,1,5.28-.88,17.57,17.57,0,0,1,7.92,1.76c2.64.88,3.52,3.51,3.52,7a39.46,39.46,0,0,1-.88,9.68c-.88,3.52-1.76,7.92-2.64,11.44a106.74,106.74,0,0,1-4.4,12.32c-1.76,4.4-3.52,7.92-5.28,12.31l-5.28,10.56c-5.28,8.8-9.68,15-14.08,19.36s-8.79,6.16-13.19,6.16a11.3,11.3,0,0,1-8.8-3.52c-2.64-2.64-3.52-5.28-4.4-8.8l5.28-5.28a38.27,38.27,0,0,0,5.28-6.16,26.74,26.74,0,0,0,4.4-6.16l-5.28-2.64C278.83,190,277.07,186.45,275.31,182.06Z" transform="translate(-14 -58)"/></svg>