<svg id="Layer_1" data-name="Layer 1" xmlns="http://www.w3.org/2000/svg" viewBox="0 0 120.09 120.22"><title>Youtube</title><path d="M148.08,60a59.89,59.89,0,0,1,59.8-60h.77c33,.17,60.56,27.9,59.49,61.25-1.14,35.63-29.5,60.08-62.25,58.93A59.6,59.6,0,0,1,148.08,60Zm3.27-.06c.22,32.32,25.4,57.24,57.65,57.06,30.71-.17,56.14-26.26,56-57.48C264.89,28,238.92,3.11,206.3,3.35c-30,.22-55.16,26.11-55,56.62Z" transform="translate(-148.08 -0.03)"/><path d="M169.07,59.67c.18-5.48-.34-11,1-16.42,1.69-6.75,5-9.75,11.79-10.12a477.05,477.05,0,0,1,52.4,0c7.27.41,11,3.8,12,11a106.93,106.93,0,0,1,0,31.85c-1.11,7.14-4.3,10.59-11.43,11A448.34,448.34,0,0,1,182,87c-7.66-.42-10.42-3.45-12-11C168.75,70.65,169.19,65.15,169.07,59.67Zm31.44-.76c0,11.35-1.24,11.44,9.32,5.59,2.79-1.54,8-2.25,7.69-5.16s-5.24-3.93-8.28-5.53c-8.68-4.52-8.7-4.52-8.73,5.1Z" transform="translate(-148.08 -0.03)"/></svg>